<svg xmlns="http://www.w3.org/2000/svg" viewBox="0 0 1347.45 938.03"><defs><style>.cls-1{fill:#f6931e;}</style></defs><title>fondocard</title><g id="OBJECTS"><path class="cls-1" d="M415.06,46.94,284.6,177.4a7.25,7.25,0,0,1-10.25,0h0a7.24,7.24,0,0,1,0-10.24L348,93.47a3.72,3.72,0,0,0,0-5.26h0a3.72,3.72,0,0,0-5.26,0l-16.66,16.66a7.79,7.79,0,0,1-11,0h0a7.8,7.8,0,0,1,0-11L457.16-48.23a6,6,0,0,0,0-8.52h0a6,6,0,0,0-8.52,0L422.56-30.67a6.38,6.38,0,0,1-9,0h0a6.38,6.38,0,0,1,0-9l75.19-75.19a6,6,0,0,1,8.52,0h0a6,6,0,0,1,0,8.52l-30.95,31a5.84,5.84,0,0,0,0,8.26h0a5.84,5.84,0,0,0,8.27,0L531-123.52a9,9,0,0,1,12.78,0h0a9,9,0,0,1,0,12.77L362.12,70.87a4.27,4.27,0,0,0,0,6h0a4.27,4.27,0,0,0,6,0l49.53-49.53a6,6,0,0,1,8.47,0h0a6,6,0,0,1,0,8.48Z" transform="translate(381.77 290.27)"/><path class="cls-1" d="M-42.91,213.11-173.37,343.57a7.25,7.25,0,0,1-10.25,0h0a7.24,7.24,0,0,1,0-10.24l73.68-73.68a3.74,3.74,0,0,0,0-5.27h0a3.72,3.72,0,0,0-5.26,0l-16.66,16.67a7.81,7.81,0,0,1-11,0h0a7.81,7.81,0,0,1,0-11L-.81,117.94a6,6,0,0,0,0-8.52h0a6,6,0,0,0-8.52,0L-35.41,135.5a6.38,6.38,0,0,1-9,0h0a6.38,6.38,0,0,1,0-9L30.76,51.29a6,6,0,0,1,8.52,0h0a6,6,0,0,1,0,8.52l-30.95,31a5.85,5.85,0,0,0,0,8.27h0a5.85,5.85,0,0,0,8.27,0L73,42.65a9,9,0,0,1,12.78,0h0a9,9,0,0,1,0,12.78L-95.85,237a4.27,4.27,0,0,0,0,6h0a4.27,4.27,0,0,0,6,0l49.53-49.53a6,6,0,0,1,8.47,0h0a6,6,0,0,1,0,8.48Z" transform="translate(381.77 290.27)"/><path class="cls-1" d="M462.28,551.63h0a14.12,14.12,0,0,0-20,0h0a9.59,9.59,0,0,1-13.57,0l-2.15-2.15a9.6,9.6,0,0,1,0-13.58l117.7-117.69a10.16,10.16,0,0,1,14.37,0h0a10.16,10.16,0,0,1,0,14.37l-31.08,31.08a6,6,0,0,0,0,8.49h0a6,6,0,0,0,8.5,0l116.7-116.7a8.8,8.8,0,0,1,12.42,0h0a8.8,8.8,0,0,1,0,12.42l-120,120a12,12,0,0,0,0,16.93h0a12,12,0,0,1,0,16.92L443.34,623.57a11.59,11.59,0,0,1-16.4,0h0a11.59,11.59,0,0,1,0-16.36l35.4-35.64A14.13,14.13,0,0,0,462.28,551.63Z" transform="translate(381.77 290.27)"/><path class="cls-1" d="M67.74,385.36,13,440.14a7.11,7.11,0,0,0,0,10.06h0a7.11,7.11,0,0,0,10.06,0L77.8,395.42a7.13,7.13,0,0,0-.19-10.25h0A7.11,7.11,0,0,0,67.74,385.36Z" transform="translate(381.77 290.27)"/><path class="cls-1" d="M206,457.16,151.21,512a7.11,7.11,0,0,0,0,10.06h0a7.11,7.11,0,0,0,10.06,0l54.78-54.79a7.1,7.1,0,0,0-.19-10.24h0A7.11,7.11,0,0,0,206,457.16Z" transform="translate(381.77 290.27)"/><path class="cls-1" d="M208.06,455.93l-54.79,54.78a7.13,7.13,0,0,0,0,10.06h0a7.12,7.12,0,0,0,10.07,0L218.12,466a7.12,7.12,0,0,0-.19-10.25h0A7.11,7.11,0,0,0,208.06,455.93Z" transform="translate(381.77 290.27)"/><path class="cls-1" d="M147.83-33.63,93.05,21.15a7.11,7.11,0,0,0,0,10.06h0a7.11,7.11,0,0,0,10.06,0L157.9-23.57a7.12,7.12,0,0,0-.2-10.25h0A7.11,7.11,0,0,0,147.83-33.63Z" transform="translate(381.77 290.27)"/><path class="cls-1" d="M625.89,50.82,592.58,84.13a8.29,8.29,0,0,0,0,11.73h0a8.3,8.3,0,0,0,11.72,0l33.31-33.32a8.28,8.28,0,0,0-.22-11.94h0A8.28,8.28,0,0,0,625.89,50.82Z" transform="translate(381.77 290.27)"/><path class="cls-1" d="M497.81-25.43,450.44,21.93a11.81,11.81,0,0,0,0,16.68h0a11.79,11.79,0,0,0,16.68,0L514.48-8.76a11.79,11.79,0,0,0-.31-17h0A11.79,11.79,0,0,0,497.81-25.43Z" transform="translate(381.77 290.27)"/><path class="cls-1" d="M175.66,185.16-24.52,385.34a7.11,7.11,0,0,0,0,10.06h0a7.11,7.11,0,0,0,10.06,0L185.73,195.22a7.12,7.12,0,0,0-.2-10.25h0A7.11,7.11,0,0,0,175.66,185.16Z" transform="translate(381.77 290.27)"/><path class="cls-1" d="M329,435.44,128.81,635.62a7.11,7.11,0,0,0,0,10.06h0a7.11,7.11,0,0,0,10.06,0L339.06,445.5a7.13,7.13,0,0,0-.19-10.25h0A7.12,7.12,0,0,0,329,435.44Z" transform="translate(381.77 290.27)"/><path class="cls-1" d="M253.79,560.21a1.58,1.58,0,1,1-2.23,2.23,1.58,1.58,0,0,1,2.23-2.23Z" transform="translate(381.77 290.27)"/><circle class="cls-1" cx="643.21" cy="842.82" r="1.58"/><circle class="cls-1" cx="651.98" cy="834.05" r="1.58"/><path class="cls-1" d="M280.1,533.9a1.58,1.58,0,0,1-2.23,2.23,1.58,1.58,0,0,1,2.23-2.23Z" transform="translate(381.77 290.27)"/><path class="cls-1" d="M288.87,525.13a1.58,1.58,0,0,1-2.23,2.23,1.58,1.58,0,0,1,2.23-2.23Z" transform="translate(381.77 290.27)"/><circle class="cls-1" cx="678.29" cy="807.74" r="1.58"/><path class="cls-1" d="M306.41,507.59a1.58,1.58,0,1,1-2.23,0A1.57,1.57,0,0,1,306.41,507.59Z" transform="translate(381.77 290.27)"/><path class="cls-1" d="M315.18,498.82a1.57,1.57,0,0,1,0,2.23,1.58,1.58,0,0,1-2.23-2.23A1.57,1.57,0,0,1,315.18,498.82Z" transform="translate(381.77 290.27)"/><circle class="cls-1" cx="704.6" cy="781.43" r="1.58"/><path class="cls-1" d="M332.72,481.28a1.57,1.57,0,0,1,0,2.23,1.58,1.58,0,0,1-2.23-2.23A1.57,1.57,0,0,1,332.72,481.28Z" transform="translate(381.77 290.27)"/><path class="cls-1" d="M341.49,472.51a1.57,1.57,0,0,1,0,2.23,1.58,1.58,0,0,1-2.23-2.23A1.57,1.57,0,0,1,341.49,472.51Z" transform="translate(381.77 290.27)"/><circle class="cls-1" cx="730.91" cy="755.12" r="1.58"/><circle class="cls-1" cx="645.2" cy="862.35" r="1.58"/><path class="cls-1" d="M273.32,562.19a1.59,1.59,0,0,1,0,2.23,1.58,1.58,0,1,1-2.23-2.23A1.59,1.59,0,0,1,273.32,562.19Z" transform="translate(381.77 290.27)"/><path class="cls-1" d="M282.09,553.42a1.59,1.59,0,0,1,0,2.23,1.58,1.58,0,0,1-2.23-2.23A1.59,1.59,0,0,1,282.09,553.42Z" transform="translate(381.77 290.27)"/><circle class="cls-1" cx="671.51" cy="836.04" r="1.58"/><path class="cls-1" d="M299.63,535.88a1.59,1.59,0,0,1,0,2.23,1.58,1.58,0,0,1-2.23-2.23A1.59,1.59,0,0,1,299.63,535.88Z" transform="translate(381.77 290.27)"/><path class="cls-1" d="M308.4,527.11a1.59,1.59,0,0,1,0,2.23,1.58,1.58,0,1,1-2.23-2.23A1.59,1.59,0,0,1,308.4,527.11Z" transform="translate(381.77 290.27)"/><circle class="cls-1" cx="697.82" cy="809.73" r="1.58"/><path class="cls-1" d="M325.94,509.57a1.59,1.59,0,0,1,0,2.23,1.58,1.58,0,0,1-2.23-2.23A1.59,1.59,0,0,1,325.94,509.57Z" transform="translate(381.77 290.27)"/><path class="cls-1" d="M334.71,500.8a1.59,1.59,0,0,1,0,2.23,1.58,1.58,0,0,1-2.23-2.23A1.59,1.59,0,0,1,334.71,500.8Z" transform="translate(381.77 290.27)"/><path class="cls-1" d="M343.48,492a1.59,1.59,0,0,1,0,2.23,1.58,1.58,0,0,1-2.23-2.23A1.59,1.59,0,0,1,343.48,492Z" transform="translate(381.77 290.27)"/><path class="cls-1" d="M352.25,483.26a1.59,1.59,0,0,1,0,2.23,1.58,1.58,0,0,1-2.23-2.23A1.59,1.59,0,0,1,352.25,483.26Z" transform="translate(381.77 290.27)"/><path class="cls-1" d="M361,474.49a1.59,1.59,0,0,1,0,2.23,1.58,1.58,0,1,1-2.23-2.23A1.59,1.59,0,0,1,361,474.49Z" transform="translate(381.77 290.27)"/><path class="cls-1" d="M275.3,581.72a1.58,1.58,0,0,1-2.23,2.23,1.58,1.58,0,0,1,2.23-2.23Z" transform="translate(381.77 290.27)"/><path class="cls-1" d="M284.07,573a1.58,1.58,0,1,1-2.23,2.23,1.58,1.58,0,0,1,2.23-2.23Z" transform="translate(381.77 290.27)"/><path class="cls-1" d="M292.84,564.18a1.58,1.58,0,1,1-2.23,2.23,1.58,1.58,0,0,1,2.23-2.23Z" transform="translate(381.77 290.27)"/><path class="cls-1" d="M301.61,555.41a1.58,1.58,0,0,1-2.23,2.23,1.58,1.58,0,0,1,2.23-2.23Z" transform="translate(381.77 290.27)"/><path class="cls-1" d="M310.38,546.64a1.57,1.57,0,0,1,0,2.23,1.58,1.58,0,0,1-2.23-2.23A1.57,1.57,0,0,1,310.38,546.64Z" transform="translate(381.77 290.27)"/><path class="cls-1" d="M319.15,537.87a1.57,1.57,0,0,1,0,2.23,1.58,1.58,0,1,1-2.23-2.23A1.57,1.57,0,0,1,319.15,537.87Z" transform="translate(381.77 290.27)"/><path class="cls-1" d="M327.92,529.1a1.57,1.57,0,0,1,0,2.23,1.58,1.58,0,0,1-2.23-2.23A1.57,1.57,0,0,1,327.92,529.1Z" transform="translate(381.77 290.27)"/><path class="cls-1" d="M336.69,520.33a1.57,1.57,0,0,1,0,2.23,1.58,1.58,0,0,1-2.23-2.23A1.57,1.57,0,0,1,336.69,520.33Z" transform="translate(381.77 290.27)"/><path class="cls-1" d="M345.46,511.56a1.57,1.57,0,0,1,0,2.23,1.58,1.58,0,0,1-2.23-2.23A1.57,1.57,0,0,1,345.46,511.56Z" transform="translate(381.77 290.27)"/><path class="cls-1" d="M354.23,502.79a1.57,1.57,0,0,1,0,2.23,1.58,1.58,0,0,1-2.23-2.23A1.57,1.57,0,0,1,354.23,502.79Z" transform="translate(381.77 290.27)"/><path class="cls-1" d="M363,494a1.57,1.57,0,0,1,0,2.23,1.58,1.58,0,0,1-2.23-2.23A1.57,1.57,0,0,1,363,494Z" transform="translate(381.77 290.27)"/><path class="cls-1" d="M371.77,485.25a1.57,1.57,0,0,1,0,2.23,1.58,1.58,0,1,1-2.23-2.23A1.57,1.57,0,0,1,371.77,485.25Z" transform="translate(381.77 290.27)"/><path class="cls-1" d="M286.06,592.48a1.58,1.58,0,0,1-2.23,2.23,1.58,1.58,0,0,1,2.23-2.23Z" transform="translate(381.77 290.27)"/><path class="cls-1" d="M294.83,583.71a1.58,1.58,0,1,1-2.23,2.23,1.58,1.58,0,0,1,2.23-2.23Z" transform="translate(381.77 290.27)"/><path class="cls-1" d="M303.6,574.94a1.58,1.58,0,1,1-2.23,2.23,1.58,1.58,0,0,1,2.23-2.23Z" transform="translate(381.77 290.27)"/><path class="cls-1" d="M312.37,566.17a1.58,1.58,0,0,1-2.23,2.23,1.58,1.58,0,0,1,2.23-2.23Z" transform="translate(381.77 290.27)"/><path class="cls-1" d="M321.14,557.4a1.57,1.57,0,0,1,0,2.23,1.58,1.58,0,1,1-2.23-2.23A1.57,1.57,0,0,1,321.14,557.4Z" transform="translate(381.77 290.27)"/><circle class="cls-1" cx="710.56" cy="840.01" r="1.58"/><path class="cls-1" d="M338.68,539.86a1.57,1.57,0,0,1,0,2.23,1.58,1.58,0,0,1-2.23-2.23A1.57,1.57,0,0,1,338.68,539.86Z" transform="translate(381.77 290.27)"/><path class="cls-1" d="M347.45,531.09a1.57,1.57,0,0,1,0,2.23,1.58,1.58,0,0,1-2.23-2.23A1.57,1.57,0,0,1,347.45,531.09Z" transform="translate(381.77 290.27)"/><circle class="cls-1" cx="736.87" cy="813.7" r="1.58"/><path class="cls-1" d="M365,513.55a1.57,1.57,0,0,1,0,2.23,1.58,1.58,0,0,1-2.23-2.23A1.57,1.57,0,0,1,365,513.55Z" transform="translate(381.77 290.27)"/><path class="cls-1" d="M373.76,504.78a1.57,1.57,0,0,1,0,2.23,1.58,1.58,0,0,1-2.23-2.23A1.57,1.57,0,0,1,373.76,504.78Z" transform="translate(381.77 290.27)"/><circle class="cls-1" cx="763.18" cy="787.39" r="1.58"/><circle class="cls-1" cx="730.91" cy="755.12" r="1.58"/><path class="cls-1" d="M359,455a1.57,1.57,0,0,1-2.23,2.22A1.57,1.57,0,1,1,359,455Z" transform="translate(381.77 290.27)"/><path class="cls-1" d="M367.8,446.2a1.57,1.57,0,0,1-2.23,2.22,1.57,1.57,0,1,1,2.23-2.22Z" transform="translate(381.77 290.27)"/><circle class="cls-1" cx="757.22" cy="728.81" r="1.58"/><path class="cls-1" d="M385.34,428.66a1.57,1.57,0,0,1-2.23,2.22,1.57,1.57,0,1,1,2.23-2.22Z" transform="translate(381.77 290.27)"/><path class="cls-1" d="M394.11,419.89a1.57,1.57,0,0,1-2.23,2.22,1.57,1.57,0,1,1,2.23-2.22Z" transform="translate(381.77 290.27)"/><circle class="cls-1" cx="783.53" cy="702.5" r="1.58"/><circle class="cls-1" cx="792.3" cy="693.73" r="1.58"/><path class="cls-1" d="M420.42,393.58a1.57,1.57,0,0,1-2.23,2.22,1.57,1.57,0,1,1,2.23-2.22Z" transform="translate(381.77 290.27)"/><circle class="cls-1" cx="809.85" cy="676.19" r="1.58"/><circle class="cls-1" cx="818.62" cy="667.42" r="1.58"/><path class="cls-1" d="M446.73,367.26a1.58,1.58,0,0,1-2.23,2.23,1.58,1.58,0,0,1,2.23-2.23Z" transform="translate(381.77 290.27)"/><path class="cls-1" d="M361,474.49a1.59,1.59,0,0,1,0,2.23,1.58,1.58,0,1,1-2.23-2.23A1.59,1.59,0,0,1,361,474.49Z" transform="translate(381.77 290.27)"/><path class="cls-1" d="M369.79,465.72a1.59,1.59,0,0,1,0,2.23,1.58,1.58,0,1,1-2.23-2.23A1.59,1.59,0,0,1,369.79,465.72Z" transform="translate(381.77 290.27)"/><circle class="cls-1" cx="759.21" cy="748.33" r="1.58"/><path class="cls-1" d="M387.33,448.18a1.59,1.59,0,0,1,0,2.23,1.58,1.58,0,0,1-2.23-2.23A1.59,1.59,0,0,1,387.33,448.18Z" transform="translate(381.77 290.27)"/><path class="cls-1" d="M396.1,439.41a1.59,1.59,0,0,1,0,2.23,1.58,1.58,0,0,1-2.23-2.23A1.59,1.59,0,0,1,396.1,439.41Z" transform="translate(381.77 290.27)"/><circle class="cls-1" cx="785.52" cy="722.02" r="1.58"/><path class="cls-1" d="M413.64,421.87a1.59,1.59,0,0,1,0,2.23,1.58,1.58,0,1,1-2.23-2.23A1.59,1.59,0,0,1,413.64,421.87Z" transform="translate(381.77 290.27)"/><path class="cls-1" d="M422.41,413.1a1.59,1.59,0,0,1,0,2.23,1.58,1.58,0,1,1-2.23-2.23A1.59,1.59,0,0,1,422.41,413.1Z" transform="translate(381.77 290.27)"/><circle class="cls-1" cx="811.83" cy="695.71" r="1.58"/><path class="cls-1" d="M440,395.56a1.59,1.59,0,0,1,0,2.23,1.58,1.58,0,0,1-2.23-2.23A1.59,1.59,0,0,1,440,395.56Z" transform="translate(381.77 290.27)"/><path class="cls-1" d="M448.72,386.79a1.59,1.59,0,0,1,0,2.23,1.58,1.58,0,0,1-2.23-2.23A1.59,1.59,0,0,1,448.72,386.79Z" transform="translate(381.77 290.27)"/><circle class="cls-1" cx="838.14" cy="669.4" r="1.58"/><path class="cls-1" d="M371.77,485.25a1.57,1.57,0,0,1,0,2.23,1.58,1.58,0,1,1-2.23-2.23A1.57,1.57,0,0,1,371.77,485.25Z" transform="translate(381.77 290.27)"/><path class="cls-1" d="M380.54,476.48a1.57,1.57,0,0,1,0,2.23,1.58,1.58,0,1,1-2.23-2.23A1.57,1.57,0,0,1,380.54,476.48Z" transform="translate(381.77 290.27)"/><path class="cls-1" d="M389.31,467.71a1.57,1.57,0,1,1-2.22,0A1.57,1.57,0,0,1,389.31,467.71Z" transform="translate(381.77 290.27)"/><path class="cls-1" d="M398.08,458.94a1.57,1.57,0,1,1-2.22,0A1.57,1.57,0,0,1,398.08,458.94Z" transform="translate(381.77 290.27)"/><path class="cls-1" d="M406.85,450.17a1.57,1.57,0,1,1-2.22,0A1.57,1.57,0,0,1,406.85,450.17Z" transform="translate(381.77 290.27)"/><path class="cls-1" d="M415.62,441.4a1.57,1.57,0,1,1-2.22,0A1.57,1.57,0,0,1,415.62,441.4Z" transform="translate(381.77 290.27)"/><path class="cls-1" d="M424.39,432.63a1.57,1.57,0,1,1-2.22,0A1.57,1.57,0,0,1,424.39,432.63Z" transform="translate(381.77 290.27)"/><path class="cls-1" d="M433.16,423.86a1.57,1.57,0,1,1-2.22,0A1.57,1.57,0,0,1,433.16,423.86Z" transform="translate(381.77 290.27)"/><path class="cls-1" d="M441.93,415.09a1.57,1.57,0,1,1-2.22,0A1.57,1.57,0,0,1,441.93,415.09Z" transform="translate(381.77 290.27)"/><path class="cls-1" d="M450.7,406.32a1.57,1.57,0,1,1-2.22,0A1.57,1.57,0,0,1,450.7,406.32Z" transform="translate(381.77 290.27)"/><path class="cls-1" d="M459.47,397.55a1.57,1.57,0,1,1-2.22,0A1.57,1.57,0,0,1,459.47,397.55Z" transform="translate(381.77 290.27)"/><path class="cls-1" d="M468.25,388.78A1.58,1.58,0,0,1,466,391a1.58,1.58,0,0,1,2.23-2.23Z" transform="translate(381.77 290.27)"/><circle class="cls-1" cx="763.18" cy="787.39" r="1.58"/><path class="cls-1" d="M391.3,487.24a1.57,1.57,0,0,1,0,2.23,1.58,1.58,0,0,1-2.23-2.23A1.57,1.57,0,0,1,391.3,487.24Z" transform="translate(381.77 290.27)"/><path class="cls-1" d="M400.07,478.47a1.57,1.57,0,1,1-2.23,2.22,1.57,1.57,0,0,1,2.23-2.22Z" transform="translate(381.77 290.27)"/><circle class="cls-1" cx="789.49" cy="761.08" r="1.58"/><path class="cls-1" d="M417.61,460.93a1.57,1.57,0,0,1-2.23,2.22,1.57,1.57,0,1,1,2.23-2.22Z" transform="translate(381.77 290.27)"/><path class="cls-1" d="M426.38,452.16a1.57,1.57,0,0,1-2.23,2.22,1.57,1.57,0,1,1,2.23-2.22Z" transform="translate(381.77 290.27)"/><path class="cls-1" d="M435.15,443.39a1.57,1.57,0,0,1-2.23,2.22,1.57,1.57,0,1,1,2.23-2.22Z" transform="translate(381.77 290.27)"/><path class="cls-1" d="M443.92,434.62a1.57,1.57,0,1,1-2.23,2.22,1.57,1.57,0,0,1,2.23-2.22Z" transform="translate(381.77 290.27)"/><path class="cls-1" d="M452.69,425.85a1.57,1.57,0,1,1-2.23,2.22,1.57,1.57,0,0,1,2.23-2.22Z" transform="translate(381.77 290.27)"/><path class="cls-1" d="M461.46,417.08a1.57,1.57,0,1,1-2.23,2.22,1.57,1.57,0,0,1,2.23-2.22Z" transform="translate(381.77 290.27)"/><path class="cls-1" d="M470.23,408.31a1.57,1.57,0,0,1-2.23,2.22,1.57,1.57,0,1,1,2.23-2.22Z" transform="translate(381.77 290.27)"/><path class="cls-1" d="M479,399.53a1.58,1.58,0,0,1-2.23,2.23,1.58,1.58,0,0,1,2.23-2.23Z" transform="translate(381.77 290.27)"/><path class="cls-1" d="M446.73,367.26a1.58,1.58,0,0,1-2.23,2.23,1.58,1.58,0,0,1,2.23-2.23Z" transform="translate(381.77 290.27)"/><path class="cls-1" d="M455.5,358.49a1.58,1.58,0,0,1-2.23,2.23,1.58,1.58,0,0,1,2.23-2.23Z" transform="translate(381.77 290.27)"/><circle class="cls-1" cx="844.93" cy="641.11" r="1.58"/><path class="cls-1" d="M473,341a1.58,1.58,0,0,1-2.23,2.23A1.58,1.58,0,0,1,473,341Z" transform="translate(381.77 290.27)"/><path class="cls-1" d="M481.81,332.18a1.58,1.58,0,0,1-2.23,2.23,1.58,1.58,0,0,1,2.23-2.23Z" transform="translate(381.77 290.27)"/><circle class="cls-1" cx="871.24" cy="614.8" r="1.58"/><path class="cls-1" d="M499.35,314.64a1.58,1.58,0,0,1-2.23,2.23,1.58,1.58,0,0,1,2.23-2.23Z" transform="translate(381.77 290.27)"/><path class="cls-1" d="M508.12,305.87a1.58,1.58,0,0,1-2.23,2.23,1.58,1.58,0,0,1,2.23-2.23Z" transform="translate(381.77 290.27)"/><circle class="cls-1" cx="897.55" cy="588.49" r="1.58"/><path class="cls-1" d="M525.66,288.33a1.58,1.58,0,0,1-2.23,2.23,1.58,1.58,0,0,1,2.23-2.23Z" transform="translate(381.77 290.27)"/><path class="cls-1" d="M534.43,279.56a1.58,1.58,0,1,1-2.23,2.23,1.58,1.58,0,0,1,2.23-2.23Z" transform="translate(381.77 290.27)"/><circle class="cls-1" cx="923.86" cy="562.18" r="1.58"/><circle class="cls-1" cx="838.14" cy="669.4" r="1.58"/><path class="cls-1" d="M466.26,369.25a1.59,1.59,0,0,1,0,2.23,1.58,1.58,0,0,1-2.23-2.23A1.59,1.59,0,0,1,466.26,369.25Z" transform="translate(381.77 290.27)"/><path class="cls-1" d="M475,360.48a1.59,1.59,0,0,1,0,2.23,1.58,1.58,0,1,1-2.23-2.23A1.59,1.59,0,0,1,475,360.48Z" transform="translate(381.77 290.27)"/><circle class="cls-1" cx="864.45" cy="643.09" r="1.58"/><path class="cls-1" d="M492.57,342.94a1.59,1.59,0,0,1,0,2.23,1.58,1.58,0,0,1-2.23-2.23A1.59,1.59,0,0,1,492.57,342.94Z" transform="translate(381.77 290.27)"/><path class="cls-1" d="M501.34,334.17a1.59,1.59,0,0,1,0,2.23,1.58,1.58,0,0,1-2.23-2.23A1.59,1.59,0,0,1,501.34,334.17Z" transform="translate(381.77 290.27)"/><path class="cls-1" d="M510.11,325.4a1.59,1.59,0,0,1,0,2.23,1.58,1.58,0,0,1-2.23-2.23A1.59,1.59,0,0,1,510.11,325.4Z" transform="translate(381.77 290.27)"/><path class="cls-1" d="M518.88,316.63a1.58,1.58,0,0,1-2.23,2.23,1.58,1.58,0,0,1,2.23-2.23Z" transform="translate(381.77 290.27)"/><path class="cls-1" d="M527.65,307.86a1.58,1.58,0,1,1-2.23,0A1.57,1.57,0,0,1,527.65,307.86Z" transform="translate(381.77 290.27)"/><path class="cls-1" d="M536.42,299.09a1.58,1.58,0,1,1-2.23,0A1.57,1.57,0,0,1,536.42,299.09Z" transform="translate(381.77 290.27)"/><path class="cls-1" d="M545.19,290.32a1.57,1.57,0,0,1,0,2.23,1.58,1.58,0,0,1-2.23-2.23A1.57,1.57,0,0,1,545.19,290.32Z" transform="translate(381.77 290.27)"/><path class="cls-1" d="M554,281.55a1.57,1.57,0,0,1,0,2.23,1.58,1.58,0,0,1-2.23-2.23A1.57,1.57,0,0,1,554,281.55Z" transform="translate(381.77 290.27)"/><path class="cls-1" d="M468.25,388.78A1.58,1.58,0,0,1,466,391a1.58,1.58,0,0,1,2.23-2.23Z" transform="translate(381.77 290.27)"/><path class="cls-1" d="M477,380a1.58,1.58,0,0,1-2.23,2.23A1.58,1.58,0,1,1,477,380Z" transform="translate(381.77 290.27)"/><path class="cls-1" d="M485.79,371.24a1.58,1.58,0,0,1-2.23,2.23,1.58,1.58,0,0,1,2.23-2.23Z" transform="translate(381.77 290.27)"/><path class="cls-1" d="M494.56,362.47a1.58,1.58,0,1,1-2.23,2.23,1.58,1.58,0,0,1,2.23-2.23Z" transform="translate(381.77 290.27)"/><path class="cls-1" d="M503.33,353.7a1.58,1.58,0,1,1-2.23,2.23,1.58,1.58,0,0,1,2.23-2.23Z" transform="translate(381.77 290.27)"/><path class="cls-1" d="M512.1,344.93a1.58,1.58,0,0,1-2.23,2.23,1.58,1.58,0,0,1,2.23-2.23Z" transform="translate(381.77 290.27)"/><path class="cls-1" d="M520.87,336.16a1.58,1.58,0,0,1-2.23,2.23,1.58,1.58,0,1,1,2.23-2.23Z" transform="translate(381.77 290.27)"/><path class="cls-1" d="M529.64,327.39a1.58,1.58,0,0,1-2.23,2.23,1.58,1.58,0,0,1,2.23-2.23Z" transform="translate(381.77 290.27)"/><path class="cls-1" d="M538.41,318.62a1.58,1.58,0,0,1-2.23,2.23,1.58,1.58,0,0,1,2.23-2.23Z" transform="translate(381.77 290.27)"/><path class="cls-1" d="M547.18,309.85a1.58,1.58,0,1,1-2.23,2.23,1.58,1.58,0,0,1,2.23-2.23Z" transform="translate(381.77 290.27)"/><path class="cls-1" d="M556,301.08a1.58,1.58,0,0,1-2.23,2.23,1.58,1.58,0,0,1,2.23-2.23Z" transform="translate(381.77 290.27)"/><path class="cls-1" d="M564.72,292.31a1.58,1.58,0,0,1-2.23,2.23,1.58,1.58,0,0,1,2.23-2.23Z" transform="translate(381.77 290.27)"/><path class="cls-1" d="M479,399.53a1.58,1.58,0,0,1-2.23,2.23,1.58,1.58,0,0,1,2.23-2.23Z" transform="translate(381.77 290.27)"/><path class="cls-1" d="M487.77,390.76a1.58,1.58,0,0,1-2.23,2.23,1.58,1.58,0,1,1,2.23-2.23Z" transform="translate(381.77 290.27)"/><circle class="cls-1" cx="877.2" cy="673.38" r="1.58"/><path class="cls-1" d="M505.31,373.22a1.58,1.58,0,1,1-2.23,2.23,1.58,1.58,0,0,1,2.23-2.23Z" transform="translate(381.77 290.27)"/><path class="cls-1" d="M514.08,364.45a1.58,1.58,0,0,1-2.23,2.23,1.58,1.58,0,0,1,2.23-2.23Z" transform="translate(381.77 290.27)"/><circle class="cls-1" cx="903.51" cy="647.07" r="1.58"/><path class="cls-1" d="M531.62,346.91a1.58,1.58,0,0,1-2.23,2.23,1.58,1.58,0,1,1,2.23-2.23Z" transform="translate(381.77 290.27)"/><path class="cls-1" d="M540.39,338.14a1.58,1.58,0,0,1-2.23,2.23,1.58,1.58,0,0,1,2.23-2.23Z" transform="translate(381.77 290.27)"/><circle class="cls-1" cx="929.82" cy="620.76" r="1.58"/><path class="cls-1" d="M557.93,320.6a1.58,1.58,0,1,1-2.23,2.23,1.58,1.58,0,0,1,2.23-2.23Z" transform="translate(381.77 290.27)"/><path class="cls-1" d="M566.7,311.83a1.58,1.58,0,0,1-2.23,2.23,1.58,1.58,0,0,1,2.23-2.23Z" transform="translate(381.77 290.27)"/><circle class="cls-1" cx="956.13" cy="594.45" r="1.58"/><path class="cls-1" d="M-36.83,252a1.57,1.57,0,0,1,0,2.23,1.58,1.58,0,0,1-2.22,0A1.57,1.57,0,0,1-39,252,1.56,1.56,0,0,1-36.83,252Z" transform="translate(381.77 290.27)"/><path class="cls-1" d="M-28,243.24a1.59,1.59,0,0,1,0,2.23,1.59,1.59,0,0,1-2.23,0,1.57,1.57,0,0,1,0-2.23A1.57,1.57,0,0,1-28,243.24Z" transform="translate(381.77 290.27)"/><circle class="cls-1" cx="361.37" cy="525.85" r="1.58"/><path class="cls-1" d="M-10.51,225.7a1.59,1.59,0,0,1,0,2.23,1.59,1.59,0,0,1-2.23,0,1.57,1.57,0,0,1,0-2.23A1.57,1.57,0,0,1-10.51,225.7Z" transform="translate(381.77 290.27)"/><path class="cls-1" d="M-1.74,216.93a1.59,1.59,0,0,1,0,2.23,1.59,1.59,0,0,1-2.23,0,1.57,1.57,0,0,1,0-2.23A1.57,1.57,0,0,1-1.74,216.93Z" transform="translate(381.77 290.27)"/><circle class="cls-1" cx="387.68" cy="499.54" r="1.58"/><path class="cls-1" d="M15.8,199.39a1.58,1.58,0,0,1-2.23,2.23,1.58,1.58,0,0,1,2.23-2.23Z" transform="translate(381.77 290.27)"/><path class="cls-1" d="M24.57,190.62a1.58,1.58,0,1,1-2.23,2.23,1.58,1.58,0,0,1,2.23-2.23Z" transform="translate(381.77 290.27)"/><circle class="cls-1" cx="413.99" cy="473.23" r="1.58"/><circle class="cls-1" cx="422.76" cy="464.46" r="1.58"/><path class="cls-1" d="M50.88,164.31a1.58,1.58,0,1,1-2.23,2.23,1.58,1.58,0,0,1,2.23-2.23Z" transform="translate(381.77 290.27)"/><circle class="cls-1" cx="440.3" cy="446.92" r="1.58"/><path class="cls-1" d="M-26.07,262.77a1.57,1.57,0,0,1,0,2.23,1.59,1.59,0,0,1-2.23,0,1.59,1.59,0,0,1,0-2.23A1.57,1.57,0,0,1-26.07,262.77Z" transform="translate(381.77 290.27)"/><path class="cls-1" d="M-17.3,254a1.57,1.57,0,0,1,0,2.23,1.59,1.59,0,0,1-2.23,0,1.59,1.59,0,0,1,0-2.23A1.57,1.57,0,0,1-17.3,254Z" transform="translate(381.77 290.27)"/><path class="cls-1" d="M-8.53,245.23a1.57,1.57,0,0,1,0,2.23,1.59,1.59,0,0,1-2.23,0,1.59,1.59,0,0,1,0-2.23A1.57,1.57,0,0,1-8.53,245.23Z" transform="translate(381.77 290.27)"/><path class="cls-1" d="M.24,236.46a1.57,1.57,0,0,1,0,2.23,1.59,1.59,0,0,1-2.23,0,1.59,1.59,0,0,1,0-2.23A1.57,1.57,0,0,1,.24,236.46Z" transform="translate(381.77 290.27)"/><path class="cls-1" d="M9,227.69a1.57,1.57,0,0,1,0,2.23,1.58,1.58,0,1,1-2.23-2.23A1.57,1.57,0,0,1,9,227.69Z" transform="translate(381.77 290.27)"/><path class="cls-1" d="M17.78,218.92a1.57,1.57,0,0,1,0,2.23,1.58,1.58,0,1,1-2.23-2.23A1.57,1.57,0,0,1,17.78,218.92Z" transform="translate(381.77 290.27)"/><path class="cls-1" d="M26.55,210.15a1.57,1.57,0,0,1,0,2.23,1.58,1.58,0,0,1-2.23-2.23A1.57,1.57,0,0,1,26.55,210.15Z" transform="translate(381.77 290.27)"/><circle class="cls-1" cx="415.98" cy="492.76" r="1.58"/><path class="cls-1" d="M44.09,192.61a1.57,1.57,0,1,1-2.23,2.22,1.57,1.57,0,0,1,2.23-2.22Z" transform="translate(381.77 290.27)"/><path class="cls-1" d="M52.86,183.84a1.57,1.57,0,0,1-2.23,2.22,1.57,1.57,0,1,1,2.23-2.22Z" transform="translate(381.77 290.27)"/><circle class="cls-1" cx="442.29" cy="466.45" r="1.58"/><path class="cls-1" d="M70.4,166.3a1.57,1.57,0,1,1-2.23,2.22,1.57,1.57,0,0,1,2.23-2.22Z" transform="translate(381.77 290.27)"/><path class="cls-1" d="M-15.31,273.52a1.59,1.59,0,0,1,0,2.23,1.57,1.57,0,0,1-2.23,0,1.57,1.57,0,0,1,0-2.23A1.59,1.59,0,0,1-15.31,273.52Z" transform="translate(381.77 290.27)"/><path class="cls-1" d="M-6.54,264.75a1.59,1.59,0,0,1,0,2.23,1.57,1.57,0,0,1-2.23,0,1.57,1.57,0,0,1,0-2.23A1.59,1.59,0,0,1-6.54,264.75Z" transform="translate(381.77 290.27)"/><path class="cls-1" d="M2.23,256a1.59,1.59,0,0,1,0,2.23A1.58,1.58,0,0,1,0,256,1.59,1.59,0,0,1,2.23,256Z" transform="translate(381.77 290.27)"/><path class="cls-1" d="M11,247.21a1.59,1.59,0,0,1,0,2.23,1.58,1.58,0,0,1-2.23-2.23A1.59,1.59,0,0,1,11,247.21Z" transform="translate(381.77 290.27)"/><path class="cls-1" d="M19.77,238.44a1.59,1.59,0,0,1,0,2.23,1.58,1.58,0,1,1-2.23-2.23A1.59,1.59,0,0,1,19.77,238.44Z" transform="translate(381.77 290.27)"/><path class="cls-1" d="M28.54,229.67a1.59,1.59,0,0,1,0,2.23,1.58,1.58,0,1,1-2.23-2.23A1.59,1.59,0,0,1,28.54,229.67Z" transform="translate(381.77 290.27)"/><path class="cls-1" d="M37.31,220.9a1.59,1.59,0,0,1,0,2.23,1.58,1.58,0,0,1-2.23-2.23A1.59,1.59,0,0,1,37.31,220.9Z" transform="translate(381.77 290.27)"/><path class="cls-1" d="M46.08,212.13a1.59,1.59,0,0,1,0,2.23,1.57,1.57,0,0,1-2.23,0,1.58,1.58,0,0,1,2.23-2.23Z" transform="translate(381.77 290.27)"/><path class="cls-1" d="M54.85,203.36a1.59,1.59,0,0,1,0,2.23,1.57,1.57,0,0,1-2.23,0,1.58,1.58,0,0,1,2.23-2.23Z" transform="translate(381.77 290.27)"/><path class="cls-1" d="M63.62,194.59a1.58,1.58,0,0,1-2.23,2.23,1.58,1.58,0,1,1,2.23-2.23Z" transform="translate(381.77 290.27)"/><circle class="cls-1" cx="453.04" cy="477.2" r="1.58"/><circle class="cls-1" cx="461.81" cy="468.43" r="1.58"/><path class="cls-1" d="M-4.55,284.28a1.59,1.59,0,0,1,0,2.23,1.59,1.59,0,0,1-2.23,0,1.57,1.57,0,0,1,0-2.23A1.59,1.59,0,0,1-4.55,284.28Z" transform="translate(381.77 290.27)"/><path class="cls-1" d="M4.22,275.51A1.58,1.58,0,0,1,2,277.74a1.58,1.58,0,1,1,2.23-2.23Z" transform="translate(381.77 290.27)"/><circle class="cls-1" cx="393.64" cy="558.12" r="1.58"/><path class="cls-1" d="M21.76,258a1.58,1.58,0,1,1-2.23,2.23A1.58,1.58,0,0,1,21.76,258Z" transform="translate(381.77 290.27)"/><path class="cls-1" d="M30.53,249.2a1.58,1.58,0,0,1-2.23,2.23,1.58,1.58,0,1,1,2.23-2.23Z" transform="translate(381.77 290.27)"/><circle class="cls-1" cx="419.95" cy="531.81" r="1.58"/><path class="cls-1" d="M48.07,231.66a1.58,1.58,0,0,1-2.23,2.23,1.58,1.58,0,1,1,2.23-2.23Z" transform="translate(381.77 290.27)"/><path class="cls-1" d="M56.84,222.89a1.58,1.58,0,0,1-2.23,2.23,1.58,1.58,0,1,1,2.23-2.23Z" transform="translate(381.77 290.27)"/><circle class="cls-1" cx="446.26" cy="505.5" r="1.58"/><circle class="cls-1" cx="455.03" cy="496.73" r="1.58"/><path class="cls-1" d="M83.15,196.58a1.58,1.58,0,0,1-2.23,2.23,1.58,1.58,0,1,1,2.23-2.23Z" transform="translate(381.77 290.27)"/><path class="cls-1" d="M91.92,187.81A1.58,1.58,0,1,1,89.69,190a1.58,1.58,0,0,1,2.23-2.23Z" transform="translate(381.77 290.27)"/><circle class="cls-1" cx="440.3" cy="446.92" r="1.58"/><path class="cls-1" d="M68.42,146.77A1.58,1.58,0,0,1,66.19,149a1.58,1.58,0,1,1,2.23-2.23Z" transform="translate(381.77 290.27)"/><path class="cls-1" d="M77.19,138A1.58,1.58,0,1,1,75,140.23,1.58,1.58,0,0,1,77.19,138Z" transform="translate(381.77 290.27)"/><circle class="cls-1" cx="466.61" cy="420.61" r="1.58"/><circle class="cls-1" cx="475.38" cy="411.84" r="1.58"/><path class="cls-1" d="M103.5,111.69a1.58,1.58,0,0,1-2.23,2.23,1.58,1.58,0,0,1,2.23-2.23Z" transform="translate(381.77 290.27)"/><path class="cls-1" d="M112.27,102.92a1.58,1.58,0,0,1-2.23,2.23,1.58,1.58,0,1,1,2.23-2.23Z" transform="translate(381.77 290.27)"/><circle class="cls-1" cx="501.69" cy="385.53" r="1.58"/><path class="cls-1" d="M129.81,85.38a1.58,1.58,0,0,1-2.23,2.23,1.58,1.58,0,0,1,2.23-2.23Z" transform="translate(381.77 290.27)"/><path class="cls-1" d="M138.58,76.61a1.58,1.58,0,0,1-2.23,2.23,1.58,1.58,0,1,1,2.23-2.23Z" transform="translate(381.77 290.27)"/><circle class="cls-1" cx="528" cy="359.22" r="1.58"/><path class="cls-1" d="M156.12,59.07a1.58,1.58,0,1,1-2.23,2.23,1.58,1.58,0,0,1,2.23-2.23Z" transform="translate(381.77 290.27)"/><path class="cls-1" d="M70.4,166.3a1.57,1.57,0,1,1-2.23,2.22,1.57,1.57,0,0,1,2.23-2.22Z" transform="translate(381.77 290.27)"/><circle class="cls-1" cx="459.83" cy="448.91" r="1.58"/><path class="cls-1" d="M87.94,148.76A1.57,1.57,0,1,1,85.71,151a1.57,1.57,0,0,1,2.23-2.22Z" transform="translate(381.77 290.27)"/><path class="cls-1" d="M96.71,140a1.57,1.57,0,1,1-2.23,2.22A1.57,1.57,0,0,1,96.71,140Z" transform="translate(381.77 290.27)"/><path class="cls-1" d="M105.48,131.22a1.57,1.57,0,0,1-2.23,2.22,1.57,1.57,0,1,1,2.23-2.22Z" transform="translate(381.77 290.27)"/><path class="cls-1" d="M114.25,122.44a1.58,1.58,0,0,1-2.23,2.23,1.58,1.58,0,0,1,2.23-2.23Z" transform="translate(381.77 290.27)"/><path class="cls-1" d="M123,113.67a1.57,1.57,0,1,1-2.22,0A1.57,1.57,0,0,1,123,113.67Z" transform="translate(381.77 290.27)"/><path class="cls-1" d="M131.79,104.9a1.57,1.57,0,1,1-2.22,0A1.57,1.57,0,0,1,131.79,104.9Z" transform="translate(381.77 290.27)"/><path class="cls-1" d="M140.56,96.13a1.57,1.57,0,1,1-2.22,0A1.57,1.57,0,0,1,140.56,96.13Z" transform="translate(381.77 290.27)"/><path class="cls-1" d="M149.33,87.36a1.57,1.57,0,1,1-2.22,0A1.57,1.57,0,0,1,149.33,87.36Z" transform="translate(381.77 290.27)"/><path class="cls-1" d="M158.1,78.59a1.57,1.57,0,1,1-2.22,0A1.57,1.57,0,0,1,158.1,78.59Z" transform="translate(381.77 290.27)"/><path class="cls-1" d="M166.87,69.82a1.57,1.57,0,1,1-2.22,0A1.57,1.57,0,0,1,166.87,69.82Z" transform="translate(381.77 290.27)"/><circle class="cls-1" cx="461.81" cy="468.43" r="1.58"/><path class="cls-1" d="M89.93,168.28a1.58,1.58,0,0,1-2.23,2.23,1.58,1.58,0,1,1,2.23-2.23Z" transform="translate(381.77 290.27)"/><path class="cls-1" d="M98.7,159.51a1.58,1.58,0,1,1-2.23,2.23,1.58,1.58,0,0,1,2.23-2.23Z" transform="translate(381.77 290.27)"/><path class="cls-1" d="M107.47,150.74a1.58,1.58,0,1,1-2.23,2.23,1.58,1.58,0,0,1,2.23-2.23Z" transform="translate(381.77 290.27)"/><path class="cls-1" d="M116.24,142A1.58,1.58,0,0,1,114,144.2a1.58,1.58,0,1,1,2.23-2.23Z" transform="translate(381.77 290.27)"/><path class="cls-1" d="M125,133.2a1.58,1.58,0,1,1-2.23,2.23A1.58,1.58,0,0,1,125,133.2Z" transform="translate(381.77 290.27)"/><path class="cls-1" d="M133.78,124.43a1.58,1.58,0,1,1-2.23,2.23,1.58,1.58,0,0,1,2.23-2.23Z" transform="translate(381.77 290.27)"/><path class="cls-1" d="M142.55,115.66a1.58,1.58,0,1,1-2.23,2.23,1.58,1.58,0,0,1,2.23-2.23Z" transform="translate(381.77 290.27)"/><path class="cls-1" d="M151.32,106.89a1.58,1.58,0,0,1-2.23,2.23,1.58,1.58,0,1,1,2.23-2.23Z" transform="translate(381.77 290.27)"/><path class="cls-1" d="M160.09,98.12a1.58,1.58,0,1,1-2.23,2.23,1.58,1.58,0,0,1,2.23-2.23Z" transform="translate(381.77 290.27)"/><path class="cls-1" d="M168.86,89.35a1.58,1.58,0,1,1-2.23,2.23,1.58,1.58,0,0,1,2.23-2.23Z" transform="translate(381.77 290.27)"/><path class="cls-1" d="M177.63,80.58a1.58,1.58,0,0,1-2.23,2.23,1.58,1.58,0,1,1,2.23-2.23Z" transform="translate(381.77 290.27)"/><path class="cls-1" d="M91.92,187.81A1.58,1.58,0,1,1,89.69,190a1.58,1.58,0,0,1,2.23-2.23Z" transform="translate(381.77 290.27)"/><circle class="cls-1" cx="481.34" cy="470.42" r="1.58"/><path class="cls-1" d="M109.46,170.27a1.58,1.58,0,0,1-2.23,2.23,1.58,1.58,0,1,1,2.23-2.23Z" transform="translate(381.77 290.27)"/><path class="cls-1" d="M118.23,161.5a1.58,1.58,0,1,1-2.23,2.23,1.58,1.58,0,0,1,2.23-2.23Z" transform="translate(381.77 290.27)"/><circle class="cls-1" cx="507.65" cy="444.11" r="1.58"/><path class="cls-1" d="M135.77,144a1.58,1.58,0,0,1-2.23,2.23,1.58,1.58,0,1,1,2.23-2.23Z" transform="translate(381.77 290.27)"/><path class="cls-1" d="M144.54,135.19a1.58,1.58,0,1,1-2.23,2.23,1.58,1.58,0,0,1,2.23-2.23Z" transform="translate(381.77 290.27)"/><circle class="cls-1" cx="533.96" cy="417.8" r="1.58"/><path class="cls-1" d="M162.08,117.65a1.58,1.58,0,1,1-2.23,2.23,1.58,1.58,0,0,1,2.23-2.23Z" transform="translate(381.77 290.27)"/><path class="cls-1" d="M170.85,108.88a1.58,1.58,0,1,1-2.23,2.23,1.58,1.58,0,0,1,2.23-2.23Z" transform="translate(381.77 290.27)"/><circle class="cls-1" cx="560.27" cy="391.49" r="1.58"/><path class="cls-1" d="M188.39,91.34a1.58,1.58,0,0,1-2.23,2.23,1.58,1.58,0,1,1,2.23-2.23Z" transform="translate(381.77 290.27)"/><path class="cls-1" d="M156.12,59.07a1.58,1.58,0,1,1-2.23,2.23,1.58,1.58,0,0,1,2.23-2.23Z" transform="translate(381.77 290.27)"/><path class="cls-1" d="M164.89,50.3a1.58,1.58,0,0,1-2.23,2.23,1.58,1.58,0,1,1,2.23-2.23Z" transform="translate(381.77 290.27)"/><circle class="cls-1" cx="554.31" cy="332.91" r="1.58"/><path class="cls-1" d="M182.43,32.76A1.58,1.58,0,0,1,180.2,35a1.58,1.58,0,0,1,2.23-2.23Z" transform="translate(381.77 290.27)"/><path class="cls-1" d="M191.2,24A1.58,1.58,0,0,1,189,26.22,1.58,1.58,0,1,1,191.2,24Z" transform="translate(381.77 290.27)"/><circle class="cls-1" cx="580.62" cy="306.6" r="1.58"/><circle class="cls-1" cx="589.39" cy="297.83" r="1.58"/><path class="cls-1" d="M217.51-2.32a1.59,1.59,0,0,1,0,2.23,1.59,1.59,0,0,1-2.23,0,1.57,1.57,0,0,1,0-2.23A1.57,1.57,0,0,1,217.51-2.32Z" transform="translate(381.77 290.27)"/><circle class="cls-1" cx="606.93" cy="280.29" r="1.58"/><circle class="cls-1" cx="615.7" cy="271.52" r="1.58"/><path class="cls-1" d="M243.82-28.63a1.58,1.58,0,0,1,0,2.22,1.57,1.57,0,0,1-2.23,0,1.56,1.56,0,0,1,0-2.22A1.57,1.57,0,0,1,243.82-28.63Z" transform="translate(381.77 290.27)"/><circle class="cls-1" cx="633.24" cy="253.98" r="1.58"/><path class="cls-1" d="M166.87,69.82a1.57,1.57,0,1,1-2.22,0A1.57,1.57,0,0,1,166.87,69.82Z" transform="translate(381.77 290.27)"/><path class="cls-1" d="M175.64,61.05a1.57,1.57,0,1,1-2.22,0A1.57,1.57,0,0,1,175.64,61.05Z" transform="translate(381.77 290.27)"/><path class="cls-1" d="M184.41,52.28a1.57,1.57,0,1,1-2.22,0A1.57,1.57,0,0,1,184.41,52.28Z" transform="translate(381.77 290.27)"/><path class="cls-1" d="M193.18,43.51a1.57,1.57,0,1,1-2.22,0A1.57,1.57,0,0,1,193.18,43.51Z" transform="translate(381.77 290.27)"/><circle class="cls-1" cx="582.61" cy="326.13" r="1.58"/><path class="cls-1" d="M210.73,26a1.59,1.59,0,0,1,0,2.23A1.58,1.58,0,0,1,208.5,26,1.59,1.59,0,0,1,210.73,26Z" transform="translate(381.77 290.27)"/><path class="cls-1" d="M219.5,17.2a1.59,1.59,0,0,1,0,2.23,1.58,1.58,0,1,1-2.23-2.23A1.59,1.59,0,0,1,219.5,17.2Z" transform="translate(381.77 290.27)"/><circle class="cls-1" cx="608.92" cy="299.82" r="1.58"/><path class="cls-1" d="M237-.34a1.59,1.59,0,0,1,0,2.23,1.57,1.57,0,0,1-2.23,0,1.57,1.57,0,0,1,0-2.23A1.59,1.59,0,0,1,237-.34Z" transform="translate(381.77 290.27)"/><path class="cls-1" d="M245.81-9.11a1.59,1.59,0,0,1,0,2.23,1.57,1.57,0,0,1-2.23,0,1.57,1.57,0,0,1,0-2.23A1.59,1.59,0,0,1,245.81-9.11Z" transform="translate(381.77 290.27)"/><circle class="cls-1" cx="635.23" cy="273.5" r="1.58"/><path class="cls-1" d="M263.35-26.65a1.59,1.59,0,0,1,0,2.23,1.57,1.57,0,0,1-2.23,0,1.57,1.57,0,0,1,0-2.23A1.59,1.59,0,0,1,263.35-26.65Z" transform="translate(381.77 290.27)"/><path class="cls-1" d="M177.63,80.58a1.58,1.58,0,0,1-2.23,2.23,1.58,1.58,0,1,1,2.23-2.23Z" transform="translate(381.77 290.27)"/><path class="cls-1" d="M186.4,71.81A1.58,1.58,0,1,1,184.17,74a1.58,1.58,0,0,1,2.23-2.23Z" transform="translate(381.77 290.27)"/><path class="cls-1" d="M195.17,63a1.58,1.58,0,1,1-2.23,2.23A1.58,1.58,0,0,1,195.17,63Z" transform="translate(381.77 290.27)"/><path class="cls-1" d="M203.94,54.27a1.57,1.57,0,0,1,0,2.23,1.58,1.58,0,1,1,0-2.23Z" transform="translate(381.77 290.27)"/><path class="cls-1" d="M212.71,45.5a1.57,1.57,0,0,1,0,2.23,1.58,1.58,0,0,1-2.23-2.23A1.57,1.57,0,0,1,212.71,45.5Z" transform="translate(381.77 290.27)"/><path class="cls-1" d="M221.48,36.73a1.57,1.57,0,0,1,0,2.23,1.58,1.58,0,0,1-2.23-2.23A1.57,1.57,0,0,1,221.48,36.73Z" transform="translate(381.77 290.27)"/><path class="cls-1" d="M230.25,28a1.57,1.57,0,0,1,0,2.23A1.58,1.58,0,1,1,228,28,1.57,1.57,0,0,1,230.25,28Z" transform="translate(381.77 290.27)"/><path class="cls-1" d="M239,19.19a1.57,1.57,0,0,1,0,2.23,1.58,1.58,0,0,1-2.23-2.23A1.57,1.57,0,0,1,239,19.19Z" transform="translate(381.77 290.27)"/><path class="cls-1" d="M247.79,10.42a1.57,1.57,0,0,1,0,2.23,1.58,1.58,0,0,1-2.23-2.23A1.57,1.57,0,0,1,247.79,10.42Z" transform="translate(381.77 290.27)"/><path class="cls-1" d="M256.56,1.65a1.57,1.57,0,0,1,0,2.23,1.58,1.58,0,1,1-2.23-2.23A1.57,1.57,0,0,1,256.56,1.65Z" transform="translate(381.77 290.27)"/><path class="cls-1" d="M265.33-7.12a1.57,1.57,0,0,1,0,2.23,1.59,1.59,0,0,1-2.23,0,1.59,1.59,0,0,1,0-2.23A1.57,1.57,0,0,1,265.33-7.12Z" transform="translate(381.77 290.27)"/><path class="cls-1" d="M274.1-15.89a1.57,1.57,0,0,1,0,2.23,1.59,1.59,0,0,1-2.23,0,1.59,1.59,0,0,1,0-2.23A1.57,1.57,0,0,1,274.1-15.89Z" transform="translate(381.77 290.27)"/><path class="cls-1" d="M188.39,91.34a1.58,1.58,0,0,1-2.23,2.23,1.58,1.58,0,1,1,2.23-2.23Z" transform="translate(381.77 290.27)"/><path class="cls-1" d="M197.16,82.57a1.58,1.58,0,1,1-2.23,2.23,1.58,1.58,0,0,1,2.23-2.23Z" transform="translate(381.77 290.27)"/><circle class="cls-1" cx="586.58" cy="365.18" r="1.58"/><path class="cls-1" d="M214.7,65a1.58,1.58,0,0,1-2.23,2.23A1.58,1.58,0,1,1,214.7,65Z" transform="translate(381.77 290.27)"/><path class="cls-1" d="M223.47,56.26a1.58,1.58,0,1,1-2.23,2.23,1.58,1.58,0,0,1,2.23-2.23Z" transform="translate(381.77 290.27)"/><circle class="cls-1" cx="612.89" cy="338.87" r="1.58"/><path class="cls-1" d="M241,38.72A1.58,1.58,0,0,1,238.78,41,1.58,1.58,0,1,1,241,38.72Z" transform="translate(381.77 290.27)"/><path class="cls-1" d="M249.78,30a1.58,1.58,0,1,1-2.23,2.23A1.58,1.58,0,0,1,249.78,30Z" transform="translate(381.77 290.27)"/><path class="cls-1" d="M258.55,21.18a1.58,1.58,0,1,1-2.23,2.23,1.58,1.58,0,0,1,2.23-2.23Z" transform="translate(381.77 290.27)"/><path class="cls-1" d="M267.32,12.41a1.58,1.58,0,0,1-2.23,2.23,1.58,1.58,0,0,1,2.23-2.23Z" transform="translate(381.77 290.27)"/><path class="cls-1" d="M276.09,3.64a1.58,1.58,0,1,1-2.23,0A1.57,1.57,0,0,1,276.09,3.64Z" transform="translate(381.77 290.27)"/><path class="cls-1" d="M284.86-5.13a1.57,1.57,0,0,1,0,2.23,1.59,1.59,0,0,1-2.23,0,1.59,1.59,0,0,1,0-2.23A1.57,1.57,0,0,1,284.86-5.13Z" transform="translate(381.77 290.27)"/><path class="cls-1" d="M643.53,434.45a1.57,1.57,0,0,1-2.23,2.22,1.57,1.57,0,1,1,2.23-2.22Z" transform="translate(381.77 290.27)"/><path class="cls-1" d="M652.3,425.68a1.57,1.57,0,0,1-2.23,2.22,1.57,1.57,0,1,1,2.23-2.22Z" transform="translate(381.77 290.27)"/><path class="cls-1" d="M661.07,416.91a1.57,1.57,0,0,1-2.23,2.22,1.57,1.57,0,1,1,2.23-2.22Z" transform="translate(381.77 290.27)"/><path class="cls-1" d="M669.84,408.14a1.57,1.57,0,0,1-2.23,2.22,1.57,1.57,0,1,1,2.23-2.22Z" transform="translate(381.77 290.27)"/><circle class="cls-1" cx="1059.27" cy="690.75" r="1.58"/><path class="cls-1" d="M687.38,390.6a1.57,1.57,0,1,1-2.23,2.22,1.57,1.57,0,0,1,2.23-2.22Z" transform="translate(381.77 290.27)"/><path class="cls-1" d="M696.15,381.83a1.57,1.57,0,0,1-2.23,2.22,1.57,1.57,0,1,1,2.23-2.22Z" transform="translate(381.77 290.27)"/><circle class="cls-1" cx="1085.58" cy="664.44" r="1.58"/><path class="cls-1" d="M713.69,364.28a1.58,1.58,0,0,1-2.23,2.23,1.58,1.58,0,0,1,2.23-2.23Z" transform="translate(381.77 290.27)"/><path class="cls-1" d="M722.46,355.51a1.58,1.58,0,0,1-2.23,2.23,1.58,1.58,0,0,1,2.23-2.23Z" transform="translate(381.77 290.27)"/><circle class="cls-1" cx="1111.89" cy="638.13" r="1.58"/><path class="cls-1" d="M740,338a1.58,1.58,0,1,1-2.23,2.23A1.58,1.58,0,0,1,740,338Z" transform="translate(381.77 290.27)"/><path class="cls-1" d="M654.29,445.2a1.59,1.59,0,0,1,0,2.23,1.58,1.58,0,0,1-2.23-2.23A1.59,1.59,0,0,1,654.29,445.2Z" transform="translate(381.77 290.27)"/><path class="cls-1" d="M663.06,436.43a1.59,1.59,0,0,1,0,2.23,1.58,1.58,0,1,1-2.23-2.23A1.59,1.59,0,0,1,663.06,436.43Z" transform="translate(381.77 290.27)"/><path class="cls-1" d="M671.83,427.66a1.59,1.59,0,0,1,0,2.23,1.58,1.58,0,0,1-2.23-2.23A1.59,1.59,0,0,1,671.83,427.66Z" transform="translate(381.77 290.27)"/><path class="cls-1" d="M680.6,418.89a1.59,1.59,0,0,1,0,2.23,1.58,1.58,0,0,1-2.23-2.23A1.59,1.59,0,0,1,680.6,418.89Z" transform="translate(381.77 290.27)"/><path class="cls-1" d="M689.37,410.12a1.59,1.59,0,0,1,0,2.23,1.58,1.58,0,0,1-2.23-2.23A1.59,1.59,0,0,1,689.37,410.12Z" transform="translate(381.77 290.27)"/><path class="cls-1" d="M698.14,401.35a1.59,1.59,0,0,1,0,2.23,1.58,1.58,0,1,1-2.23-2.23A1.59,1.59,0,0,1,698.14,401.35Z" transform="translate(381.77 290.27)"/><circle class="cls-1" cx="1087.56" cy="683.96" r="1.58"/><circle class="cls-1" cx="1096.33" cy="675.19" r="1.58"/><path class="cls-1" d="M724.45,375a1.59,1.59,0,0,1,0,2.23,1.58,1.58,0,0,1-2.23-2.23A1.59,1.59,0,0,1,724.45,375Z" transform="translate(381.77 290.27)"/><path class="cls-1" d="M733.22,366.27a1.59,1.59,0,0,1,0,2.23,1.58,1.58,0,0,1-2.23-2.23A1.59,1.59,0,0,1,733.22,366.27Z" transform="translate(381.77 290.27)"/><path class="cls-1" d="M742,357.5a1.59,1.59,0,0,1,0,2.23,1.58,1.58,0,0,1-2.23-2.23A1.59,1.59,0,0,1,742,357.5Z" transform="translate(381.77 290.27)"/><path class="cls-1" d="M750.76,348.73a1.59,1.59,0,0,1,0,2.23,1.58,1.58,0,1,1-2.23-2.23A1.59,1.59,0,0,1,750.76,348.73Z" transform="translate(381.77 290.27)"/><path class="cls-1" d="M665,456a1.57,1.57,0,1,1-2.22,0A1.57,1.57,0,0,1,665,456Z" transform="translate(381.77 290.27)"/><path class="cls-1" d="M673.81,447.19a1.57,1.57,0,1,1-2.22,0A1.57,1.57,0,0,1,673.81,447.19Z" transform="translate(381.77 290.27)"/><circle class="cls-1" cx="1063.24" cy="729.8" r="1.58"/><path class="cls-1" d="M691.35,429.65a1.57,1.57,0,1,1-2.22,0A1.57,1.57,0,0,1,691.35,429.65Z" transform="translate(381.77 290.27)"/><path class="cls-1" d="M700.12,420.88a1.57,1.57,0,1,1-2.22,0A1.57,1.57,0,0,1,700.12,420.88Z" transform="translate(381.77 290.27)"/><circle class="cls-1" cx="1089.55" cy="703.49" r="1.58"/><path class="cls-1" d="M717.66,403.34a1.57,1.57,0,1,1-2.22,0A1.57,1.57,0,0,1,717.66,403.34Z" transform="translate(381.77 290.27)"/><path class="cls-1" d="M726.44,394.57a1.58,1.58,0,0,1-2.23,2.23,1.58,1.58,0,0,1,2.23-2.23Z" transform="translate(381.77 290.27)"/><circle class="cls-1" cx="1115.86" cy="677.18" r="1.58"/><circle class="cls-1" cx="1124.63" cy="668.41" r="1.58"/><path class="cls-1" d="M752.75,368.26a1.58,1.58,0,0,1-2.23,2.23,1.58,1.58,0,0,1,2.23-2.23Z" transform="translate(381.77 290.27)"/><path class="cls-1" d="M761.52,359.49a1.58,1.58,0,0,1-2.23,2.23,1.58,1.58,0,0,1,2.23-2.23Z" transform="translate(381.77 290.27)"/><path class="cls-1" d="M675.8,466.72a1.57,1.57,0,0,1-2.23,2.22,1.57,1.57,0,1,1,2.23-2.22Z" transform="translate(381.77 290.27)"/><circle class="cls-1" cx="1065.22" cy="749.33" r="1.58"/><path class="cls-1" d="M693.34,449.18a1.57,1.57,0,0,1-2.23,2.22,1.57,1.57,0,1,1,2.23-2.22Z" transform="translate(381.77 290.27)"/><path class="cls-1" d="M702.11,440.41a1.57,1.57,0,0,1-2.23,2.22,1.57,1.57,0,1,1,2.23-2.22Z" transform="translate(381.77 290.27)"/><circle class="cls-1" cx="1091.54" cy="723.02" r="1.58"/><path class="cls-1" d="M719.65,422.87a1.57,1.57,0,1,1-2.23,2.22,1.57,1.57,0,0,1,2.23-2.22Z" transform="translate(381.77 290.27)"/><path class="cls-1" d="M728.42,414.1a1.57,1.57,0,1,1-2.23,2.22,1.57,1.57,0,0,1,2.23-2.22Z" transform="translate(381.77 290.27)"/><circle class="cls-1" cx="1117.85" cy="696.71" r="1.58"/><path class="cls-1" d="M746,396.56a1.57,1.57,0,0,1-2.23,2.22,1.57,1.57,0,1,1,2.23-2.22Z" transform="translate(381.77 290.27)"/><path class="cls-1" d="M754.73,387.78A1.58,1.58,0,0,1,752.5,390a1.58,1.58,0,0,1,2.23-2.23Z" transform="translate(381.77 290.27)"/><circle class="cls-1" cx="1144.16" cy="670.4" r="1.58"/><path class="cls-1" d="M772.27,370.24a1.58,1.58,0,0,1-2.23,2.23,1.58,1.58,0,0,1,2.23-2.23Z" transform="translate(381.77 290.27)"/><path class="cls-1" d="M740,338a1.58,1.58,0,1,1-2.23,2.23A1.58,1.58,0,0,1,740,338Z" transform="translate(381.77 290.27)"/><path class="cls-1" d="M748.77,329.2a1.58,1.58,0,0,1-2.23,2.23,1.58,1.58,0,0,1,2.23-2.23Z" transform="translate(381.77 290.27)"/><path class="cls-1" d="M757.54,320.43a1.58,1.58,0,0,1-2.23,2.23,1.58,1.58,0,0,1,2.23-2.23Z" transform="translate(381.77 290.27)"/><path class="cls-1" d="M766.31,311.66a1.58,1.58,0,0,1-2.23,2.23,1.58,1.58,0,1,1,2.23-2.23Z" transform="translate(381.77 290.27)"/><path class="cls-1" d="M775.08,302.89a1.58,1.58,0,0,1-2.23,2.23,1.58,1.58,0,0,1,2.23-2.23Z" transform="translate(381.77 290.27)"/><path class="cls-1" d="M783.85,294.12a1.58,1.58,0,0,1-2.23,2.23,1.58,1.58,0,0,1,2.23-2.23Z" transform="translate(381.77 290.27)"/><path class="cls-1" d="M792.62,285.35a1.58,1.58,0,1,1-2.23,2.23,1.58,1.58,0,0,1,2.23-2.23Z" transform="translate(381.77 290.27)"/><path class="cls-1" d="M801.39,276.58a1.58,1.58,0,0,1-2.23,2.23,1.58,1.58,0,0,1,2.23-2.23Z" transform="translate(381.77 290.27)"/><path class="cls-1" d="M810.16,267.81a1.58,1.58,0,0,1-2.23,2.23,1.58,1.58,0,0,1,2.23-2.23Z" transform="translate(381.77 290.27)"/><path class="cls-1" d="M818.93,259a1.58,1.58,0,1,1-2.23,2.23,1.58,1.58,0,0,1,2.23-2.23Z" transform="translate(381.77 290.27)"/><path class="cls-1" d="M827.7,250.27a1.58,1.58,0,0,1-2.23,2.23,1.58,1.58,0,1,1,2.23-2.23Z" transform="translate(381.77 290.27)"/><path class="cls-1" d="M836.47,241.5a1.58,1.58,0,1,1-2.23,2.23,1.58,1.58,0,0,1,2.23-2.23Z" transform="translate(381.77 290.27)"/><path class="cls-1" d="M750.76,348.73a1.59,1.59,0,0,1,0,2.23,1.58,1.58,0,1,1-2.23-2.23A1.59,1.59,0,0,1,750.76,348.73Z" transform="translate(381.77 290.27)"/><path class="cls-1" d="M759.53,340a1.59,1.59,0,0,1,0,2.23A1.58,1.58,0,0,1,757.3,340,1.59,1.59,0,0,1,759.53,340Z" transform="translate(381.77 290.27)"/><path class="cls-1" d="M768.3,331.19a1.59,1.59,0,0,1,0,2.23,1.58,1.58,0,1,1-2.23-2.23A1.59,1.59,0,0,1,768.3,331.19Z" transform="translate(381.77 290.27)"/><path class="cls-1" d="M777.07,322.42a1.59,1.59,0,0,1,0,2.23,1.58,1.58,0,0,1-2.23-2.23A1.59,1.59,0,0,1,777.07,322.42Z" transform="translate(381.77 290.27)"/><path class="cls-1" d="M785.84,313.65a1.58,1.58,0,1,1-2.23,0A1.59,1.59,0,0,1,785.84,313.65Z" transform="translate(381.77 290.27)"/><path class="cls-1" d="M794.61,304.88a1.57,1.57,0,0,1,0,2.23,1.58,1.58,0,0,1-2.23-2.23A1.57,1.57,0,0,1,794.61,304.88Z" transform="translate(381.77 290.27)"/><path class="cls-1" d="M803.38,296.11a1.57,1.57,0,0,1,0,2.23,1.58,1.58,0,1,1-2.23-2.23A1.57,1.57,0,0,1,803.38,296.11Z" transform="translate(381.77 290.27)"/><path class="cls-1" d="M812.15,287.34a1.57,1.57,0,0,1,0,2.23,1.58,1.58,0,0,1-2.23-2.23A1.57,1.57,0,0,1,812.15,287.34Z" transform="translate(381.77 290.27)"/><path class="cls-1" d="M820.92,278.57a1.57,1.57,0,0,1,0,2.23,1.58,1.58,0,0,1-2.23-2.23A1.57,1.57,0,0,1,820.92,278.57Z" transform="translate(381.77 290.27)"/><path class="cls-1" d="M829.69,269.8a1.57,1.57,0,0,1,0,2.23,1.58,1.58,0,0,1-2.23-2.23A1.57,1.57,0,0,1,829.69,269.8Z" transform="translate(381.77 290.27)"/><path class="cls-1" d="M838.46,261a1.57,1.57,0,0,1,0,2.23,1.58,1.58,0,0,1-2.23-2.23A1.57,1.57,0,0,1,838.46,261Z" transform="translate(381.77 290.27)"/><path class="cls-1" d="M847.23,252.26a1.57,1.57,0,0,1,0,2.23,1.58,1.58,0,0,1-2.23-2.23A1.57,1.57,0,0,1,847.23,252.26Z" transform="translate(381.77 290.27)"/><path class="cls-1" d="M761.52,359.49a1.58,1.58,0,0,1-2.23,2.23,1.58,1.58,0,0,1,2.23-2.23Z" transform="translate(381.77 290.27)"/><circle class="cls-1" cx="1150.94" cy="642.1" r="1.58"/><path class="cls-1" d="M779.06,342a1.58,1.58,0,0,1-2.23,2.23,1.58,1.58,0,1,1,2.23-2.23Z" transform="translate(381.77 290.27)"/><path class="cls-1" d="M787.83,333.18a1.58,1.58,0,0,1-2.23,2.23,1.58,1.58,0,0,1,2.23-2.23Z" transform="translate(381.77 290.27)"/><circle class="cls-1" cx="1177.25" cy="615.79" r="1.58"/><path class="cls-1" d="M805.37,315.64a1.58,1.58,0,0,1-2.23,2.23,1.58,1.58,0,0,1,2.23-2.23Z" transform="translate(381.77 290.27)"/><path class="cls-1" d="M814.14,306.87a1.58,1.58,0,0,1-2.23,2.23,1.58,1.58,0,0,1,2.23-2.23Z" transform="translate(381.77 290.27)"/><circle class="cls-1" cx="1203.56" cy="589.48" r="1.58"/><path class="cls-1" d="M831.68,289.33a1.58,1.58,0,1,1-2.23,2.23,1.58,1.58,0,0,1,2.23-2.23Z" transform="translate(381.77 290.27)"/><path class="cls-1" d="M840.45,280.56a1.58,1.58,0,0,1-2.23,2.23,1.58,1.58,0,0,1,2.23-2.23Z" transform="translate(381.77 290.27)"/><circle class="cls-1" cx="1229.87" cy="563.17" r="1.58"/><path class="cls-1" d="M858,263a1.58,1.58,0,0,1-2.23,2.23A1.58,1.58,0,0,1,858,263Z" transform="translate(381.77 290.27)"/><path class="cls-1" d="M772.27,370.24a1.58,1.58,0,0,1-2.23,2.23,1.58,1.58,0,0,1,2.23-2.23Z" transform="translate(381.77 290.27)"/><path class="cls-1" d="M781,361.47a1.58,1.58,0,1,1-2.23,2.23,1.58,1.58,0,0,1,2.23-2.23Z" transform="translate(381.77 290.27)"/><circle class="cls-1" cx="1170.47" cy="644.09" r="1.58"/><path class="cls-1" d="M798.58,343.93a1.58,1.58,0,0,1-2.23,2.23,1.58,1.58,0,0,1,2.23-2.23Z" transform="translate(381.77 290.27)"/><path class="cls-1" d="M807.35,335.16a1.58,1.58,0,0,1-2.23,2.23,1.58,1.58,0,1,1,2.23-2.23Z" transform="translate(381.77 290.27)"/><path class="cls-1" d="M816.12,326.39a1.58,1.58,0,0,1-2.23,2.23,1.58,1.58,0,0,1,2.23-2.23Z" transform="translate(381.77 290.27)"/><path class="cls-1" d="M824.89,317.62a1.58,1.58,0,0,1-2.23,2.23,1.58,1.58,0,0,1,2.23-2.23Z" transform="translate(381.77 290.27)"/><path class="cls-1" d="M833.66,308.85a1.58,1.58,0,1,1-2.23,2.23,1.58,1.58,0,0,1,2.23-2.23Z" transform="translate(381.77 290.27)"/><path class="cls-1" d="M842.43,300.08a1.58,1.58,0,1,1-2.23,2.23,1.58,1.58,0,0,1,2.23-2.23Z" transform="translate(381.77 290.27)"/><circle class="cls-1" cx="1231.86" cy="582.7" r="1.58"/><path class="cls-1" d="M860,282.54a1.58,1.58,0,0,1-2.23,2.23,1.58,1.58,0,1,1,2.23-2.23Z" transform="translate(381.77 290.27)"/><path class="cls-1" d="M868.74,273.77a1.57,1.57,0,1,1-2.22,0A1.57,1.57,0,0,1,868.74,273.77Z" transform="translate(381.77 290.27)"/><path class="cls-1" d="M836.47,241.5a1.58,1.58,0,1,1-2.23,2.23,1.58,1.58,0,0,1,2.23-2.23Z" transform="translate(381.77 290.27)"/><path class="cls-1" d="M845.24,232.73A1.58,1.58,0,0,1,843,235a1.58,1.58,0,0,1,2.23-2.23Z" transform="translate(381.77 290.27)"/><path class="cls-1" d="M854,224a1.58,1.58,0,0,1-2.23,2.23A1.58,1.58,0,1,1,854,224Z" transform="translate(381.77 290.27)"/><path class="cls-1" d="M862.78,215.19a1.57,1.57,0,1,1-2.22,0A1.57,1.57,0,0,1,862.78,215.19Z" transform="translate(381.77 290.27)"/><circle class="cls-1" cx="1252.21" cy="497.8" r="1.58"/><path class="cls-1" d="M880.32,197.65a1.57,1.57,0,1,1-2.22,0A1.57,1.57,0,0,1,880.32,197.65Z" transform="translate(381.77 290.27)"/><path class="cls-1" d="M889.09,188.88a1.57,1.57,0,1,1-2.22,0A1.57,1.57,0,0,1,889.09,188.88Z" transform="translate(381.77 290.27)"/><circle class="cls-1" cx="1278.52" cy="471.49" r="1.58"/><path class="cls-1" d="M906.63,171.34a1.57,1.57,0,1,1-2.22,0A1.57,1.57,0,0,1,906.63,171.34Z" transform="translate(381.77 290.27)"/><path class="cls-1" d="M915.4,162.57a1.57,1.57,0,1,1-2.22,0A1.57,1.57,0,0,1,915.4,162.57Z" transform="translate(381.77 290.27)"/><path class="cls-1" d="M924.18,153.8a1.59,1.59,0,0,1,0,2.23A1.58,1.58,0,0,1,922,153.8,1.59,1.59,0,0,1,924.18,153.8Z" transform="translate(381.77 290.27)"/><path class="cls-1" d="M933,145a1.59,1.59,0,0,1,0,2.23,1.58,1.58,0,0,1-2.23-2.23A1.59,1.59,0,0,1,933,145Z" transform="translate(381.77 290.27)"/><path class="cls-1" d="M847.23,252.26a1.57,1.57,0,0,1,0,2.23,1.58,1.58,0,0,1-2.23-2.23A1.57,1.57,0,0,1,847.23,252.26Z" transform="translate(381.77 290.27)"/><path class="cls-1" d="M856,243.49a1.57,1.57,0,0,1,0,2.23,1.58,1.58,0,1,1-2.23-2.23A1.57,1.57,0,0,1,856,243.49Z" transform="translate(381.77 290.27)"/><path class="cls-1" d="M864.77,234.72a1.57,1.57,0,0,1,0,2.23,1.58,1.58,0,0,1-2.23-2.23A1.57,1.57,0,0,1,864.77,234.72Z" transform="translate(381.77 290.27)"/><path class="cls-1" d="M873.54,226a1.57,1.57,0,0,1,0,2.23,1.58,1.58,0,0,1-2.23-2.23A1.57,1.57,0,0,1,873.54,226Z" transform="translate(381.77 290.27)"/><circle class="cls-1" cx="1262.96" cy="508.56" r="1.58"/><path class="cls-1" d="M891.08,208.41a1.57,1.57,0,0,1,0,2.23,1.58,1.58,0,0,1-2.23-2.23A1.57,1.57,0,0,1,891.08,208.41Z" transform="translate(381.77 290.27)"/><path class="cls-1" d="M899.85,199.64a1.57,1.57,0,0,1,0,2.23,1.58,1.58,0,0,1-2.23-2.23A1.57,1.57,0,0,1,899.85,199.64Z" transform="translate(381.77 290.27)"/><circle class="cls-1" cx="1289.28" cy="482.25" r="1.58"/><path class="cls-1" d="M917.39,182.1a1.57,1.57,0,0,1,0,2.23,1.58,1.58,0,0,1-2.23-2.23A1.57,1.57,0,0,1,917.39,182.1Z" transform="translate(381.77 290.27)"/><path class="cls-1" d="M926.16,173.33a1.57,1.57,0,0,1,0,2.23,1.58,1.58,0,0,1-2.23-2.23A1.57,1.57,0,0,1,926.16,173.33Z" transform="translate(381.77 290.27)"/><path class="cls-1" d="M934.93,164.56a1.57,1.57,0,0,1,0,2.23,1.58,1.58,0,0,1-2.23-2.23A1.57,1.57,0,0,1,934.93,164.56Z" transform="translate(381.77 290.27)"/><path class="cls-1" d="M943.7,155.79a1.57,1.57,0,0,1,0,2.23,1.58,1.58,0,0,1-2.23-2.23A1.57,1.57,0,0,1,943.7,155.79Z" transform="translate(381.77 290.27)"/><path class="cls-1" d="M858,263a1.58,1.58,0,0,1-2.23,2.23A1.58,1.58,0,0,1,858,263Z" transform="translate(381.77 290.27)"/><path class="cls-1" d="M866.76,254.25a1.58,1.58,0,0,1-2.23,2.23,1.58,1.58,0,0,1,2.23-2.23Z" transform="translate(381.77 290.27)"/><circle class="cls-1" cx="1256.18" cy="536.86" r="1.58"/><path class="cls-1" d="M884.3,236.71a1.57,1.57,0,0,1-2.23,2.22,1.57,1.57,0,1,1,2.23-2.22Z" transform="translate(381.77 290.27)"/><path class="cls-1" d="M893.07,227.94a1.57,1.57,0,1,1-2.23,2.22,1.57,1.57,0,0,1,2.23-2.22Z" transform="translate(381.77 290.27)"/><circle class="cls-1" cx="1282.49" cy="510.55" r="1.58"/><circle class="cls-1" cx="1291.26" cy="501.78" r="1.58"/><path class="cls-1" d="M919.38,201.63a1.57,1.57,0,1,1-2.23,2.22,1.57,1.57,0,0,1,2.23-2.22Z" transform="translate(381.77 290.27)"/><path class="cls-1" d="M928.15,192.86a1.57,1.57,0,1,1-2.23,2.22,1.57,1.57,0,0,1,2.23-2.22Z" transform="translate(381.77 290.27)"/><circle class="cls-1" cx="1317.57" cy="475.47" r="1.58"/><path class="cls-1" d="M945.69,175.32a1.57,1.57,0,1,1-2.23,2.22,1.57,1.57,0,0,1,2.23-2.22Z" transform="translate(381.77 290.27)"/><path class="cls-1" d="M954.46,166.54a1.59,1.59,0,0,1,0,2.23,1.58,1.58,0,0,1-2.23-2.23A1.59,1.59,0,0,1,954.46,166.54Z" transform="translate(381.77 290.27)"/><path class="cls-1" d="M868.74,273.77a1.57,1.57,0,1,1-2.22,0A1.57,1.57,0,0,1,868.74,273.77Z" transform="translate(381.77 290.27)"/><circle class="cls-1" cx="1258.17" cy="556.38" r="1.58"/><path class="cls-1" d="M886.28,256.23a1.57,1.57,0,1,1-2.22,0A1.57,1.57,0,0,1,886.28,256.23Z" transform="translate(381.77 290.27)"/><path class="cls-1" d="M895.05,247.46a1.57,1.57,0,1,1-2.22,0A1.57,1.57,0,0,1,895.05,247.46Z" transform="translate(381.77 290.27)"/><circle class="cls-1" cx="1284.48" cy="530.07" r="1.58"/><path class="cls-1" d="M912.59,229.92a1.57,1.57,0,1,1-2.22,0A1.57,1.57,0,0,1,912.59,229.92Z" transform="translate(381.77 290.27)"/><path class="cls-1" d="M921.36,221.15a1.57,1.57,0,1,1-2.22,0A1.57,1.57,0,0,1,921.36,221.15Z" transform="translate(381.77 290.27)"/><circle class="cls-1" cx="1310.79" cy="503.76" r="1.58"/><path class="cls-1" d="M938.9,203.61a1.57,1.57,0,1,1-2.22,0A1.57,1.57,0,0,1,938.9,203.61Z" transform="translate(381.77 290.27)"/><path class="cls-1" d="M947.68,194.84a1.59,1.59,0,0,1,0,2.23,1.58,1.58,0,0,1-2.23-2.23A1.59,1.59,0,0,1,947.68,194.84Z" transform="translate(381.77 290.27)"/><circle class="cls-1" cx="1337.1" cy="477.45" r="1.58"/><path class="cls-1" d="M965.22,177.3a1.59,1.59,0,0,1,0,2.23A1.58,1.58,0,1,1,963,177.3,1.59,1.59,0,0,1,965.22,177.3Z" transform="translate(381.77 290.27)"/><path class="cls-1" d="M537.22,6.91,498.66,45.46a7.13,7.13,0,0,0,0,10.06h0a7.12,7.12,0,0,0,10.07,0L547.28,17a7.12,7.12,0,0,0-.19-10.25h0A7.11,7.11,0,0,0,537.22,6.91Z" transform="translate(381.77 290.27)"/><path class="cls-1" d="M695.64,70,674.76,90.91a8.15,8.15,0,0,0,0,11.52h0a8.15,8.15,0,0,0,11.52,0l20.88-20.88a8.14,8.14,0,0,0-.22-11.73h0A8.14,8.14,0,0,0,695.64,70Z" transform="translate(381.77 290.27)"/><path class="cls-1" d="M-99.72,527.14h0a8.29,8.29,0,0,0,11.71,0l67.5-67.51a3.21,3.21,0,0,1,4.52,0h0a3.21,3.21,0,0,1,0,4.52L-153.87,602a7.72,7.72,0,0,0,0,10.91h0a7.7,7.7,0,0,0,10.91,0L-41.39,511.36a7.58,7.58,0,0,1,10.72,0h0a7.59,7.59,0,0,0,10.73,0L60.47,431a6.51,6.51,0,0,1,9.22,0h0a6.52,6.52,0,0,1,0,9.21L50.22,459.63a6.92,6.92,0,0,0,0,9.78h0a6.92,6.92,0,0,0,9.78,0l87.84-87.84a8.77,8.77,0,0,0,0-12.41h0a8.77,8.77,0,0,0-12.41,0l-35.37,35.36a6.64,6.64,0,0,1-9.4,0h0a6.65,6.65,0,0,1,0-9.41l19.18-19.18a10.91,10.91,0,0,0,0-15.43h0a10.92,10.92,0,0,0-15.42,0L77.68,377.25a3.74,3.74,0,0,1-5.27,0h0a3.74,3.74,0,0,1,0-5.27l60-60a11.39,11.39,0,0,0,0-16.11h0a11.4,11.4,0,0,0-16.18.07l-216,219.57A8.28,8.28,0,0,0-99.72,527.14Z" transform="translate(381.77 290.27)"/><path class="cls-1" d="M365.13,438.39l-54.78,54.78a7.11,7.11,0,0,0,0,10.06h0a7.11,7.11,0,0,0,10.06,0l54.79-54.78A7.13,7.13,0,0,0,375,438.2h0A7.12,7.12,0,0,0,365.13,438.39Z" transform="translate(381.77 290.27)"/><path class="cls-1" d="M93.48,73.87-45.91,213.26a7.12,7.12,0,0,0,0,10.07h0a7.11,7.11,0,0,0,10.06,0L103.54,83.94a7.11,7.11,0,0,0-.19-10.25h0A7.12,7.12,0,0,0,93.48,73.87Z" transform="translate(381.77 290.27)"/><path class="cls-1" d="M764,303.23l-207.3,207.3a7.11,7.11,0,0,0,0,10.06h0a7.11,7.11,0,0,0,10.06,0l207.3-207.3a7.11,7.11,0,0,0-.19-10.24h0A7.1,7.1,0,0,0,764,303.23Z" transform="translate(381.77 290.27)"/><path class="cls-1" d="M234.89,178.9l-43.16,43.16a7.74,7.74,0,0,0,0,11h0a7.74,7.74,0,0,0,11,0l43.16-43.16a7.75,7.75,0,0,0-.21-11.16h0A7.74,7.74,0,0,0,234.89,178.9Z" transform="translate(381.77 290.27)"/><path class="cls-1" d="M135.86,29.65,116.81,48.7a7.45,7.45,0,0,0,0,10.52h0a7.45,7.45,0,0,0,10.52,0l19-19a7.46,7.46,0,0,0-.2-10.71h0A7.45,7.45,0,0,0,135.86,29.65Z" transform="translate(381.77 290.27)"/><path class="cls-1" d="M266,168.78a8.15,8.15,0,1,1,.84-11.49A8.15,8.15,0,0,1,266,168.78Z" transform="translate(381.77 290.27)"/><path class="cls-1" d="M100.76,497.11h0a8.62,8.62,0,0,1,0-12.2L173,412.65a9.08,9.08,0,0,1,12.83,0h0a9.08,9.08,0,0,1,0,12.83l-47.58,47.58a9.67,9.67,0,0,0,0,13.68h0a9.66,9.66,0,0,1,0,13.67l-59,59a10.39,10.39,0,0,1-14.68,0h0a10.38,10.38,0,0,1,.07-14.76l36.06-35.33A8.62,8.62,0,0,0,100.76,497.11Z" transform="translate(381.77 290.27)"/><path class="cls-1" d="M600.25,252.13h0a7,7,0,0,0,9.85,0l26.63-26.62a3.65,3.65,0,0,1,5.17,0h0a3.67,3.67,0,0,1,0,5.17L542.78,329.8a8.12,8.12,0,0,0,0,11.48h0a8.12,8.12,0,0,0,11.47,0L701.76,193.77a7.58,7.58,0,0,0,0-10.72h0a7.58,7.58,0,0,0-10.72,0l-21.31,21.31a4,4,0,0,1-5.58,0h0a4,4,0,0,1,0-5.58l65.59-65.6a6.78,6.78,0,0,0,0-9.61h0a6.81,6.81,0,0,0-9.6,0L600.28,242.26A7,7,0,0,0,600.25,252.13Z" transform="translate(381.77 290.27)"/><path class="cls-1" d="M292.64,23.79,237.86,78.57a7.11,7.11,0,0,0,0,10.06h0a7.11,7.11,0,0,0,10.06,0L302.7,33.85a7.11,7.11,0,0,0-.19-10.25h0A7.11,7.11,0,0,0,292.64,23.79Z" transform="translate(381.77 290.27)"/><path class="cls-1" d="M750.64,398.73l-43.17,43.16a7.76,7.76,0,0,0,0,11h0a7.74,7.74,0,0,0,11,0l43.16-43.16a7.75,7.75,0,0,0-.2-11.16h0A7.74,7.74,0,0,0,750.64,398.73Z" transform="translate(381.77 290.27)"/><circle class="cls-1" cx="202.79" cy="390.43" r="8.14" transform="translate(165.09 548.01) rotate(-45)"/><path class="cls-1" d="M173.3,1.9h0a9.59,9.59,0,0,0,13.57,0l60.37-60.37a7.18,7.18,0,0,1,10.15,0h0a7.18,7.18,0,0,1,0,10.16l-151,151a8.52,8.52,0,0,0,0,12h0a8.52,8.52,0,0,0,12,0l46.84-46.84a7.72,7.72,0,0,1,10.91,0h0a7.7,7.7,0,0,0,10.91,0L263.68-8.7a7.88,7.88,0,0,1,11.13,0h0a7.88,7.88,0,0,1,0,11.13L184,93.28a8.89,8.89,0,0,0,0,12.57h0a8.89,8.89,0,0,0,12.57,0L352.1-49.72a6,6,0,0,1,8.47,0h0a6,6,0,0,1,0,8.46l-22.95,23a8.11,8.11,0,0,0,0,11.47h0a8.11,8.11,0,0,0,11.47,0L399-56.78a6.92,6.92,0,0,1,9.78,0h0a6.91,6.91,0,0,1,0,9.79L320.22,41.6a8.77,8.77,0,0,0,0,12.41h0a8.77,8.77,0,0,0,12.41,0l174-174a10.12,10.12,0,0,0,0-14.29h0a10.11,10.11,0,0,0-14.3,0L453.06-95a9.9,9.9,0,0,1-14,0h0a9.9,9.9,0,0,1,0-14l19.7-19.7a11.16,11.16,0,0,0,0-15.8h0a11.16,11.16,0,0,0-15.8,0L429.41-131a9.19,9.19,0,0,1-13,0h0a9.19,9.19,0,0,1,0-13L541.28-268.81a12.57,12.57,0,0,0,0-17.78h0a12.58,12.58,0,0,0-17.77,0L375.94-139a6.58,6.58,0,0,1-9.31,0h0a6.58,6.58,0,0,1,0-9.31l45.15-45.15a10.57,10.57,0,0,0,0-15h0a10.58,10.58,0,0,0-15,0l-55.31,55.31a9.76,9.76,0,0,1-13.8,0h0a9.77,9.77,0,0,0-13.83,0L173.28-11.64A9.6,9.6,0,0,0,173.3,1.9Z" transform="translate(381.77 290.27)"/><path class="cls-1" d="M-312.32,499.4h0a9.6,9.6,0,0,0,13.56,0L-238.39,439a7.18,7.18,0,0,1,10.16,0h0a7.19,7.19,0,0,1,0,10.16l-151,151a8.52,8.52,0,0,0,0,12h0a8.52,8.52,0,0,0,12,0l46.84-46.84a7.72,7.72,0,0,1,10.91,0h0a7.72,7.72,0,0,0,10.91,0l76.63-76.63a7.86,7.86,0,0,1,11.13,0h0a7.86,7.86,0,0,1,0,11.13l-90.85,90.85a8.89,8.89,0,0,0,0,12.57h0a8.89,8.89,0,0,0,12.57,0l155.58-155.57a6,6,0,0,1,8.46,0h0a6,6,0,0,1,0,8.46L-148,479.19a8.11,8.11,0,0,0,0,11.47h0a8.12,8.12,0,0,0,11.48,0l49.94-49.94a6.92,6.92,0,0,1,9.78,0h0a6.92,6.92,0,0,1,0,9.78l-88.6,88.6a8.79,8.79,0,0,0,0,12.41h0a8.78,8.78,0,0,0,12.42,0l174-174a10.11,10.11,0,0,0,0-14.3h0a10.13,10.13,0,0,0-14.3,0l-39.26,39.27a9.9,9.9,0,0,1-14,0h0a9.9,9.9,0,0,1,0-14l19.7-19.71a11.18,11.18,0,0,0,0-15.8h0a11.18,11.18,0,0,0-15.8,0l-13.55,13.55a9.17,9.17,0,0,1-13,0h0a9.17,9.17,0,0,1,0-13L55.66,228.69a12.57,12.57,0,0,0,0-17.78h0a12.57,12.57,0,0,0-17.78,0L-109.68,358.48a6.58,6.58,0,0,1-9.31,0h0a6.6,6.6,0,0,1,0-9.32L-73.85,304a10.57,10.57,0,0,0,0-14.95h0a10.57,10.57,0,0,0-15,0l-55.31,55.31a9.77,9.77,0,0,1-13.81,0h0a9.76,9.76,0,0,0-13.82,0l-140.6,141.45A9.59,9.59,0,0,0-312.32,499.4Z" transform="translate(381.77 290.27)"/><path class="cls-1" d="M636.76,305.61l-84.47,84.47a7.11,7.11,0,0,0,0,10.06h0a7.11,7.11,0,0,0,10.06,0l84.47-84.47a7.1,7.1,0,0,0-.19-10.24h0A7.1,7.1,0,0,0,636.76,305.61Z" transform="translate(381.77 290.27)"/><circle class="cls-1" cx="920.7" cy="702.91" r="7.84"/><path class="cls-1" d="M560.88,92.92h0a14.11,14.11,0,0,0-20,0h0a9.61,9.61,0,0,1-13.57,0l-2.15-2.15a9.6,9.6,0,0,1,0-13.58L642.88-40.5a10.17,10.17,0,0,1,14.38,0h0a10.18,10.18,0,0,1,0,14.37L626.18,4.94a6,6,0,0,0,0,8.5h0a6,6,0,0,0,8.5,0l116.7-116.7a8.79,8.79,0,0,1,12.41,0h0a8.78,8.78,0,0,1,0,12.42l-120,120a12,12,0,0,0,0,16.93h0a12,12,0,0,1,0,16.93L541.94,164.86a11.58,11.58,0,0,1-16.39,0h0a11.59,11.59,0,0,1,0-16.37l35.4-35.64A14.12,14.12,0,0,0,560.88,92.92Z" transform="translate(381.77 290.27)"/><path class="cls-1" d="M788.4,172l-84.47,84.47a7.12,7.12,0,0,0,0,10.07h0a7.13,7.13,0,0,0,10.06,0L798.47,182a7.11,7.11,0,0,0-.19-10.24h0A7.13,7.13,0,0,0,788.4,172Z" transform="translate(381.77 290.27)"/><path class="cls-1" d="M618.83,397.7,593,423.58a10.09,10.09,0,0,0,0,14.27h0a10.07,10.07,0,0,0,14.27,0L633.11,412a10.1,10.1,0,0,0-.27-14.54h0A10.1,10.1,0,0,0,618.83,397.7Z" transform="translate(381.77 290.27)"/><path class="cls-1" d="M507.64,390.92l-43.17,43.17a7.76,7.76,0,0,0,0,11h0a7.76,7.76,0,0,0,11,0l43.16-43.17a7.75,7.75,0,0,0-.2-11.16h0A7.76,7.76,0,0,0,507.64,390.92Z" transform="translate(381.77 290.27)"/><path class="cls-1" d="M242.8,103.63,101.08,245.35a6.52,6.52,0,0,1-9.21,0h0a6.51,6.51,0,0,1,0-9.2L233.59,94.43a6.5,6.5,0,0,1,8.93-.26h0A6.51,6.51,0,0,1,242.8,103.63Z" transform="translate(381.77 290.27)"/></g></svg>