<svg xmlns="http://www.w3.org/2000/svg" viewBox="0 0 74.86 26.77"><defs><style>.cls-1{fill:#00adef;}.cls-2{fill:#fff;}.cls-3,.cls-4{fill:none;stroke:#000;stroke-miterlimit:10;}.cls-4{stroke-width:2px;}</style></defs><title>Recurso 2</title><g id="Capa_2" data-name="Capa 2"><g id="Capa_1-2" data-name="Capa 1"><path d="M24.56,25.69h-7L17.39,6.57s0-1.3-.94-1.31c-1.13,0-.91,1.35-.93,1.31V25.69H8.7L8.56,6.57c0-.87-.29-1.32-.94-1.31-.89,0-.94.51-.94,1.39V25.77L0,25.69V1.45H6.75V3a4.9,4.9,0,0,1,3.89-2c1.53,0,2.95.26,4.6,2.43C16.52,1.78,17.81,1,19.53,1a6.62,6.62,0,0,1,3,.71,4.14,4.14,0,0,1,1.81,1.81,1.94,1.94,0,0,1,.2.86Z"/><path d="M74.86,25.21l-3.9,0s-.39-1-.57-1.7c0,.55-1,1.53-1.79,1.83a5.38,5.38,0,0,1-2.1.4,6.07,6.07,0,0,1-4.38-1.86,6.14,6.14,0,0,1-1.67-4.23l.06-12.17c.06-3,.87-4,1.89-4.88A7.11,7.11,0,0,1,67.27,1a8.45,8.45,0,0,1,4.87,1.14,5.22,5.22,0,0,1,2.57,4.14l.07,3.93H68.55V5.85a.92.92,0,0,0-1.82,0l-.06,14.33c0,1.14.42,1.51,1,1.51.74,0,1-.56,1.09-1.39l.06-4.19-1.19,0V12.47h7.23S74.85,24.28,74.86,25.21Z"/><path class="cls-1" d="M54.89,13.38a12.39,12.39,0,0,1-24.77,0Z"/><path class="cls-2" d="M30.12,13.38a12.39,12.39,0,0,1,24.77,0Z"/><line class="cls-3" x1="30.8" y1="13.43" x2="54.21" y2="13.43"/><circle class="cls-4" cx="42.5" cy="13.38" r="12.38"/><circle cx="42.5" cy="6.09" r="2.48"/><rect x="40.37" y="10.4" width="4" height="12.76"/></g></g></svg>